<svg xmlns="http://www.w3.org/2000/svg" viewBox="0 0 256.06 38.29"><defs><style>.cls-1{fill:#222;}</style></defs><title>アセット 2</title><g id="レイヤー_2" data-name="レイヤー 2"><g id="レイヤー_1-2" data-name="レイヤー 1"><path class="cls-1" d="M57.75.42V21.07q0,8.19-4.27,12.7T41.23,38.29q-8.61,0-12.39-5.81a12.1,12.1,0,0,1-5,4.37,17.13,17.13,0,0,1-7.38,1.44q-8,0-12.22-4.52T0,21.07V.42H8.75V20.3q0,5.32,1.85,7.84t5.92,2.52c2.71,0,4.71-.85,6-2.56s2-4.3,2-7.8V.42h8.75V20.3q0,5.25,2,7.8c1.31,1.71,3.31,2.56,6,2.56s4.68-.84,5.92-2.52S49,23.85,49,20.3V.42Z"/><path class="cls-1" d="M101.22.42V37.8H92.89V33a13.59,13.59,0,0,1-5.36,4,18,18,0,0,1-7,1.33,19.83,19.83,0,0,1-9.77-2.38A17,17,0,0,1,64,29.19,20.37,20.37,0,0,1,61.6,19.11,20.2,20.2,0,0,1,64,9.06a17,17,0,0,1,6.72-6.68A19.83,19.83,0,0,1,80.5,0a17.28,17.28,0,0,1,6.68,1.26A14.72,14.72,0,0,1,92.47,5V.42ZM89.46,27.58a11.6,11.6,0,0,0,3.15-8.47,11.6,11.6,0,0,0-3.15-8.47,11.46,11.46,0,0,0-15.93,0,11.7,11.7,0,0,0-3.11,8.47,11.7,11.7,0,0,0,3.11,8.47,11.46,11.46,0,0,0,15.93,0Z"/><path class="cls-1" d="M143.5.42l-16,37.38h-9L102.41.42h9.1l11.62,27.72L135.1.42Z"/><path class="cls-1" d="M172.69,26.81l4.62,5.39a15.35,15.35,0,0,1-6.3,4.55,25.24,25.24,0,0,1-19.53-.91A17.65,17.65,0,0,1,144.23,29a19.26,19.26,0,0,1-2.55-9.9,19.65,19.65,0,0,1,2.48-9.84A17.77,17.77,0,0,1,151,2.45,20,20,0,0,1,160.93,0a20.19,20.19,0,0,1,9.55,2.27,17.13,17.13,0,0,1,6.83,6.52,19,19,0,0,1,2.52,9.9l-28.63,5.6a9.72,9.72,0,0,0,4.27,4.9,14,14,0,0,0,7.07,1.68A13.76,13.76,0,0,0,172.69,26.81ZM153.12,10.15a11.84,11.84,0,0,0-3,8.47v.07l21.14-4.06a9.93,9.93,0,0,0-3.68-5.53A10.72,10.72,0,0,0,160.93,7,10.26,10.26,0,0,0,153.12,10.15Z"/><path class="cls-1" d="M205.66,0V8.33a11.2,11.2,0,0,0-2-.21q-5.12,0-8,3c-1.92,2-2.87,4.85-2.87,8.58V37.8H184V.42h8.33V5.88Q196.14,0,205.66,0Z"/><path class="cls-1" d="M230.86,0V8.33a11.2,11.2,0,0,0-2-.21q-5.12,0-8,3c-1.92,2-2.87,4.85-2.87,8.58V37.8h-8.75V.42h8.33V5.88Q221.34,0,230.86,0Z"/><path class="cls-1" d="M256.06,0V8.33a11.2,11.2,0,0,0-2-.21q-5.11,0-8,3c-1.92,2-2.87,4.85-2.87,8.58V37.8h-8.75V.42h8.33V5.88Q246.54,0,256.06,0Z"/></g></g></svg>